<?xml version="1.0" encoding="UTF-8" standalone="no"?>
<!-- Generator: Adobe Illustrator 26.3.1, SVG Export Plug-In . SVG Version: 6.00 Build 0)  -->

<svg
   version="1.1"
   id="Layer_1"
   x="0px"
   y="0px"
   viewBox="0 0 119 138"
   style="enable-background:new 0 0 119 138;"
   xml:space="preserve"
   sodipodi:docname="Synechron_Black_Logo_O - circle.svg"
   inkscape:version="1.3 (0e150ed6c4, 2023-07-21)"
   xmlns:inkscape="http://www.inkscape.org/namespaces/inkscape"
   xmlns:sodipodi="http://sodipodi.sourceforge.net/DTD/sodipodi-0.dtd"
   xmlns="http://www.w3.org/2000/svg"
   xmlns:svg="http://www.w3.org/2000/svg"><defs
   id="defs3" /><sodipodi:namedview
   id="namedview3"
   pagecolor="#ffffff"
   bordercolor="#000000"
   borderopacity="0.25"
   inkscape:showpageshadow="2"
   inkscape:pageopacity="0.0"
   inkscape:pagecheckerboard="0"
   inkscape:deskcolor="#d1d1d1"
   inkscape:zoom="8.5"
   inkscape:cx="59.529412"
   inkscape:cy="69"
   inkscape:window-width="2560"
   inkscape:window-height="1369"
   inkscape:window-x="-8"
   inkscape:window-y="-8"
   inkscape:window-maximized="1"
   inkscape:current-layer="Layer_1" />&#10;<style
   type="text/css"
   id="style1">&#10;	.st0{fill:#242424;}&#10;</style>&#10;<circle
   style="fill:#ffffff;stroke:#ffffff;paint-order:fill markers stroke;stroke-opacity:1"
   id="path4"
   cx="61.705879"
   cy="71.117645"
   r="52.176472" /><path
   class="st0"
   d="M82.4,64.3c-1.2,0.9-1.6,1.4-1.6,2.1c-1.2,7.6-3.5,17.5-6.9,22.7c-3.8,5.9-10.2,7.8-17.5,7.8  c-5.2,0-9.1-0.7-11.7-2.6c-0.4-0.3-0.9-0.5-1.5-0.6s-1.1,0.1-1.5,0.4l-6.9,5c-0.3,0.2-0.6,0.6-0.7,0.9c-0.2,0.4-0.3,0.7-0.2,1.1  c0,0.4,0.1,0.8,0.3,1.1c0.2,0.3,0.5,0.6,0.8,0.9c5.1,3.4,12.2,4.4,20.4,4.4c12.2,0,21.9-3,28.1-11.1c6.9-9,10.4-25.3,11.3-35.9  c0-0.5-0.1-0.9-0.3-1.3c-0.2-0.4-0.6-0.7-1-1c-0.4-0.2-0.9-0.3-1.4-0.3s-0.9,0.2-1.3,0.4L82.4,64.3z"
   id="path1" />&#10;<path
   class="st0"
   d="M39.4,81.3c1-0.8,1.2-1.1,1.3-1.6c0.7-8,3.4-21.9,8.8-28.2c3.7-4.5,9.2-6.3,15.7-6.3s11.3,0.8,14.1,4.1  c0.4,0.5,1,0.8,1.6,0.9c0.7,0.1,1.3-0.1,1.8-0.5l7.2-5.3c0.3-0.2,0.5-0.5,0.7-0.8s0.3-0.6,0.3-1c0-0.3,0-0.7-0.1-1s-0.3-0.6-0.5-0.9  c-5.1-5.5-13.8-6.4-23.7-6.4s-19.7,2.2-26.3,9.4C31,53.8,28.1,69.8,27.5,85c0,0.4,0.1,0.9,0.3,1.3s0.6,0.7,1,0.9  c0.4,0.2,0.9,0.3,1.4,0.3s0.9-0.2,1.3-0.4L39.4,81.3z"
   id="path2" />&#10;<path
   class="st0"
   d="M69.2,70.8c0,1.3-0.4,2.6-1.2,3.7s-1.9,1.9-3.2,2.4s-2.7,0.6-4.1,0.4s-2.6-0.9-3.6-1.8s-1.6-2.1-1.9-3.4  c-0.3-1.3-0.1-2.6,0.4-3.9c0.5-1.2,1.4-2.3,2.6-3c1.2-0.7,2.5-1.1,3.9-1.1c1.9,0,3.7,0.7,5,2C68.5,67.3,69.2,69,69.2,70.8"
   id="path3" />&#10;</svg>
